#!OML:ASF H:\Not Pregnant\Project 1\Capture day 1\Session 1\non-pregnant.ASF
:FULLY-SPECIFIED
:DEGREES
315
root -4.90517 16.3026 34.4237 -164.083 -78.3404 -183.3
lowerback -5.05541 2.46993 0.263378
upperback -2.05177 3.24478 -0.409731
thorax 0.760589 1.60335 -0.384884
lowerneck 17.7712 -5.59532 -31.2495
upperneck 4.59393 -17.4168 40.9179
head 5.38011 -11.3644 22.5693
rclavicle 3.29983e-014 4.17448e-015
rhumerus -20.9037 36.0868 -85.3313
rradius 92.9272
rwrist -2.45451
rhand -22.6923 -4.61163
rfingers 7.12502
rthumb 3.74026 -34.5586
lclavicle 3.29983e-014 4.17448e-015
lhumerus -101.706 -15.316 135.974
lradius 85.265
lwrist 69.428
lhand 13.5551 12.084
lfingers 7.12502
lthumb 38.4899 37.7482
rfemur -21.5799 -15.5099 21.0578
rtibia 20.6876
rfoot -16.0827 27.1175
rtoes -1.59567
lfemur -14.8646 3.12014 -19.65
ltibia 9.79064
lfoot -7.24363 1.94319
ltoes -23.4506
316
root -4.9144 16.2949 34.427 -164.295 -78.3407 -183.377
lowerback -5.11698 2.43599 0.221641
upperback -2.13773 3.19791 -0.35189
thorax 0.700584 1.57897 -0.304783
lowerneck 17.6291 -5.62047 -31.2386
upperneck 4.35454 -17.3482 40.9616
head 5.31222 -11.3144 22.5666
rclavicle -4.03036e-014 -2.18663e-015
rhumerus -21.2569 34.7697 -84.9734
rradius 92.7346
rwrist -2.00466
rhand -22.6456 -4.48157
rfingers 7.12502
rthumb 3.78537 -34.4277
lclavicle -4.03036e-014 -2.18663e-015
lhumerus -101.461 -15.1396 135.589
lradius 84.8931
lwrist 69.2081
lhand 13.7852 12.1738
lfingers 7.12502
lthumb 38.707 37.7771
rfemur -21.222 -15.2104 20.8578
rtibia 20.7965
rfoot -16.2725 26.7377
rtoes -1.83836
lfemur -14.6062 3.04364 -19.657
ltibia 9.99507
lfoot -7.4011 2.04045
ltoes -23.4186
317
root -4.92318 16.2873 34.4306 -164.482 -78.3487 -183.467
lowerback -5.17153 2.40629 0.186963
upperback -2.22811 3.15634 -0.302083
thorax 0.63314 1.55721 -0.23696
lowerneck 17.5059 -5.64485 -31.224
upperneck 4.11841 -17.2864 41.0104
head 5.24552 -11.2707 22.5692
rclavicle -1.26228e-014 -3.77691e-015
rhumerus -21.6366 33.3944 -84.6147
rradius 92.5304
rwrist -1.64531
rhand -22.5857 -4.31563
rfingers 7.12502
rthumb 3.84323 -34.2607
lclavicle -1.26228e-014 -3.77691e-015
lhumerus -101.217 -14.9834 135.19
lradius 84.494
lwrist 69.0121
lhand 13.9554 12.2125
lfingers 7.12502
lthumb 38.8675 37.7703
rfemur -20.889 -14.9034 20.6595
rtibia 20.9226
rfoot -16.4496 26.3519
rtoes -2.03836
lfemur -14.3563 2.95844 -19.6683
ltibia 10.182
lfoot -7.55073 2.13045
ltoes -23.3472
318
root -4.93157 16.2794 34.4352 -164.632 -78.3634 -183.581
lowerback -5.2259 2.38073 0.15192
upperback -2.31814 3.12033 -0.254476
thorax 0.566198 1.53826 -0.17085
lowerneck 17.3974 -5.66798 -31.2245
upperneck 3.88444 -17.2346 41.0707
head 5.18584 -11.2359 22.5873
rclavicle 1.52816e-014 -9.93923e-015
rhumerus -22.0332 31.9655 -84.2394
rradius 92.3132
rwrist -1.39762
rhand -22.5286 -4.11993
rfingers 7.12502
rthumb 3.89833 -34.064
lclavicle 1.52816e-014 -9.93923e-015
lhumerus -100.967 -14.8494 134.788
lradius 84.0676
lwrist 68.8407
lhand 14.0245 12.2129
lfingers 7.12502
lthumb 38.9327 37.7522
rfemur -20.5866 -14.6533 20.4734
rtibia 21.0613
rfoot -16.6363 26.0182
rtoes -2.24544
lfemur -14.1178 2.83683 -19.6818
ltibia 10.3554
lfoot -7.68853 2.24249
ltoes -23.2637
319
root -4.9397 16.2716 34.4407 -164.862 -78.3966 -183.6
lowerback -5.27883 2.36595 0.159137
upperback -2.41011 3.09672 -0.217131
thorax 0.499381 1.52522 -0.138174
lowerneck 17.3013 -5.69653 -31.2196
upperneck 3.6588 -17.202 41.1457
head 5.13769 -11.2148 22.616
rclavicle 2.38666e-014 1.09332e-014
rhumerus -22.452 30.4502 -83.8628
rradius 92.0766
rwrist -1.24184
rhand -22.4558 -3.86264
rfingers 7.12502
rthumb 3.96865 -33.8054
lclavicle 2.38666e-014 1.09332e-014
lhumerus -100.734 -14.7592 134.377
lradius 83.6198
lwrist 68.6832
lhand 13.9975 12.1986
lfingers 7.12502
lthumb 38.9072 37.7452
rfemur -20.3061 -14.4254 20.318
rtibia 21.205
rfoot -16.8072 25.7081
rtoes -2.40109
lfemur -13.8997 2.70825 -19.6759
ltibia 10.5284
lfoot -7.83173 2.34685
ltoes -23.1325
320
root -4.94758 16.2636 34.4474 -165.063 -78.4392 -183.635
lowerback -5.33111 2.34567 0.173652
upperback -2.5048 3.06529 -0.178633
thorax 0.429723 1.50816 -0.108918
lowerneck 17.1938 -5.71618 -31.2629
upperneck 3.47026 -17.1787 41.2286
head 5.11529 -11.2016 22.6699
rclavicle -1.79155e-014 -1.59028e-015
rhumerus -22.8891 28.9186 -83.473
rradius 91.8202
rwrist -1.15321
rhand -22.3444 -3.55225
rfingers 7.12502
rthumb 4.07624 -33.493
lclavicle -1.79155e-014 -1.59028e-015
lhumerus -100.478 -14.6649 133.945
lradius 83.1487
lwrist 68.5168
lhand 13.8512 12.1828
lfingers 7.12502
lthumb 38.7692 37.7686
rfemur -20.0455 -14.2197 20.1676
rtibia 21.3477
rfoot -16.9703 25.4167
rtoes -2.55043
lfemur -13.7011 2.57691 -19.6782
ltibia 10.7011
lfoot -7.98082 2.44785
ltoes -22.9764
321
root -4.95522 16.2555 34.4547 -165.287 -78.4993 -183.636
lowerback -5.37788 2.33011 0.205392
upperback -2.60204 3.03934 -0.147741
thorax 0.355715 1.49363 -0.097026
lowerneck 17.0941 -5.74294 -31.2916
upperneck 3.29684 -17.171 41.3087
head 5.10093 -11.1969 22.7165
rclavicle 2.51587e-014 5.96354e-015
rhumerus -23.3489 27.3376 -83.0726
rradius 91.5392
rwrist -1.10616
rhand -22.2936 -3.28103
rfingers 7.12502
rthumb 4.12525 -33.2208
lclavicle 2.51587e-014 5.96354e-015
lhumerus -100.23 -14.5998 133.495
lradius 82.6543
lwrist 68.3175
lhand 13.5876 12.166
lfingers 7.12502
lthumb 38.5206 37.8216
rfemur -19.793 -14.0543 20.0377
rtibia 21.4777
rfoot -17.1425 25.1468
rtoes -2.74682
lfemur -13.5179 2.44059 -19.675
ltibia 10.8774
lfoot -8.13972 2.54304
ltoes -22.7939
322
root -4.96285 16.2478 34.4619 -165.572 -78.5646 -183.566
lowerback -5.42443 2.31242 0.240379
upperback -2.70044 3.01026 -0.111336
thorax 0.280222 1.47744 -0.0815075
lowerneck 16.9942 -5.77658 -31.2869
upperneck 3.13549 -17.1615 41.3576
head 5.07904 -11.186 22.7265
rclavicle 3.13334e-014 0
rhumerus -23.8256 25.7656 -82.6456
rradius 91.2401
rwrist -1.10102
rhand -22.2763 -3.05444
rfingers 7.12502
rthumb 4.14201 -32.9939
lclavicle 3.13334e-014 0
lhumerus -99.9679 -14.5403 133.017
lradius 82.1388
lwrist 68.0724
lhand 13.2616 12.1412
lfingers 7.12502
lthumb 38.2129 37.8821
rfemur -19.54 -13.8735 19.9242
rtibia 21.5889
rfoot -17.2803 24.8767
rtoes -2.8781
lfemur -13.3447 2.31852 -19.6601
ltibia 11.0537
lfoot -8.30779 2.63167
ltoes -22.6228
323
root -4.97014 16.2404 34.469 -165.923 -78.6423 -183.417
lowerback -5.46757 2.29151 0.289845
upperback -2.80459 2.97598 -0.0718723
thorax 0.197471 1.45839 -0.0714987
lowerneck 16.9051 -5.81035 -31.2611
upperneck 2.98308 -17.1466 41.383
head 5.04774 -11.1694 22.7122
rclavicle 5.69145e-014 5.36719e-015
rhumerus -24.32 24.1836 -82.2128
rradius 90.9006
rwrist -1.10045
rhand -22.2965 -2.89351
rfingers 7.12502
rthumb 4.12242 -32.8334
lclavicle 5.69145e-014 5.36719e-015
lhumerus -99.6848 -14.4774 132.498
lradius 81.5883
lwrist 67.7664
lhand 12.9137 12.1176
lfingers 7.12502
lthumb 37.8844 37.9482
rfemur -19.286 -13.6914 19.8364
rtibia 21.6716
rfoot -17.4132 24.5927
rtoes -3.0596
lfemur -13.1901 2.19758 -19.6279
ltibia 11.237
lfoot -8.4826 2.71506
ltoes -22.451
324
root -4.97721 16.2334 34.4758 -166.396 -78.7322 -183.133
lowerback -5.5078 2.26247 0.350778
upperback -2.91382 2.93 -0.0149579
thorax 0.10747 1.4333 -0.0509048
lowerneck 16.8193 -5.83795 -31.2418
upperneck 2.84731 -17.1234 41.3871
head 5.01347 -11.1464 22.6857
rclavicle -1.64494e-014 7.95139e-016
rhumerus -24.8265 22.6254 -81.7599
rradius 90.5216
rwrist -1.10813
rhand -22.3533 -2.78699
rfingers 7.12502
rthumb 4.06759 -32.7279
lclavicle -1.64494e-014 7.95139e-016
lhumerus -99.3635 -14.3931 131.941
lradius 80.9978
lwrist 67.4015
lhand 12.613 12.0706
lfingers 7.12502
lthumb 37.6003 37.9775
rfemur -19.0256 -13.5095 19.7844
rtibia 21.7188
rfoot -17.5223 24.3093
rtoes -3.23579
lfemur -13.0547 2.07691 -19.5667
ltibia 11.4323
lfoot -8.66322 2.79728
ltoes -22.3166
325
root -4.98403 16.227 34.4822 -166.968 -78.8272 -182.739
lowerback -5.54651 2.23623 0.431831
upperback -3.02229 2.88681 0.0425402
thorax 0.0183381 1.40928 -0.0407753
lowerneck 16.7316 -5.86259 -31.2388
upperneck 2.72901 -17.1076 41.4001
head 4.99209 -11.1295 22.6733
rclavicle 3.33586e-015 7.7526e-015
rhumerus -25.3381 21.0614 -81.2938
rradius 90.103
rwrist -1.12563
rhand -22.4346 -2.73061
rfingers 7.12502
rthumb 3.98913 -32.673
lclavicle 3.33586e-015 7.7526e-015
lhumerus -99.016 -14.3199 131.341
lradius 80.3615
lwrist 66.9871
lhand 12.3901 11.9901
lfingers 7.12502
lthumb 37.3896 37.9529
rfemur -18.7573 -13.3268 19.7635
rtibia 21.7301
rfoot -17.6265 24.0147
rtoes -3.47861
lfemur -12.9398 1.95679 -19.4826
ltibia 11.6482
lfoot -8.85384 2.88131
ltoes -22.1976
326
root -4.9906 16.2209 34.4885 -167.637 -78.9262 -182.242
lowerback -5.58045 2.21431 0.531806
upperback -3.12861 2.84857 0.101882
thorax -0.0704429 1.38742 -0.0391376
lowerneck 16.6488 -5.8851 -31.2584
upperneck 2.62238 -17.1027 41.4254
head 4.98375 -11.1216 22.6792
rclavicle 2.78671e-014 -4.17448e-015
rhumerus -25.8588 19.4835 -80.8124
rradius 89.6467
rwrist -1.13307
rhand -22.5625 -2.70967
rfingers 7.12502
rthumb 3.86555 -32.6543
lclavicle 2.78671e-014 -4.17448e-015
lhumerus -98.6411 -14.2599 130.704
lradius 79.6773
lwrist 66.5321
lhand 12.2384 11.8602
lfingers 7.12502
lthumb 37.2462 37.8606
rfemur -18.4796 -13.1496 19.7697
rtibia 21.7092
rfoot -17.7177 23.7225
rtoes -3.74497
lfemur -12.84 1.84155 -19.3789
ltibia 11.8802
lfoot -9.05195 2.96163
ltoes -22.1023
327
root -4.99698 16.2151 34.4948 -168.366 -79.0273 -181.688
lowerback -5.60413 2.19914 0.642935
upperback -3.22899 2.81917 0.158102
thorax -0.158158 1.36977 -0.046661
lowerneck 16.569 -5.90884 -31.2981
upperneck 2.52982 -17.1142 41.464
head 4.992 -11.1255 22.7023
rclavicle 1.71514e-014 6.16232e-015
rhumerus -26.3898 17.8666 -80.318
rradius 89.1541
rwrist -1.11046
rhand -22.792 -2.74389
rfingers 7.12502
rthumb 3.64398 -32.6925
lclavicle 1.71514e-014 6.16232e-015
lhumerus -98.2481 -14.2264 130.04
lradius 78.9509
lwrist 66.0702
lhand 12.106 11.6853
lfingers 7.12502
lthumb 37.121 37.7184
rfemur -18.1878 -12.9999 19.7955
rtibia 21.6628
rfoot -17.8181 23.4387
rtoes -4.09711
lfemur -12.7417 1.72183 -19.2634
ltibia 12.1227
lfoot -9.25489 3.04275
ltoes -21.9969
328
root -5.00321 16.2095 34.5006 -169.1 -79.1272 -181.133
lowerback -5.61991 2.18786 0.751425
upperback -3.32181 2.79555 0.206936
thorax -0.242291 1.35498 -0.0600573
lowerneck 16.4865 -5.93585 -31.3449
upperneck 2.45105 -17.139 41.5099
head 5.01361 -11.1378 22.733
rclavicle -3.60188e-014 -6.55989e-015
rhumerus -26.9293 16.2234 -79.8083
rradius 88.6362
rwrist -1.04307
rhand -23.0281 -2.78517
rfingers 7.12502
rthumb 3.41596 -32.7375
lclavicle -3.60188e-014 -6.55989e-015
lhumerus -97.8375 -14.2244 129.347
lradius 78.196
lwrist 65.6252
lhand 11.9602 11.4987
lfingers 7.12502
lthumb 36.9831 37.5675
rfemur -17.8824 -12.8542 19.8241
rtibia 21.5966
rfoot -17.9174 23.1506
rtoes -4.48796
lfemur -12.6409 1.60495 -19.149
ltibia 12.3685
lfoot -9.45967 3.12107
ltoes -21.9046
329
root -5.00919 16.2043 34.5055 -169.83 -79.24 -180.583
lowerback -5.63104 2.17332 0.848208
upperback -3.40858 2.76848 0.254883
thorax -0.323402 1.33859 -0.0680229
lowerneck 16.4062 -5.96428 -31.3999
upperneck 2.38124 -17.1718 41.5571
head 5.04272 -11.1551 22.7671
rclavicle -4.33677e-015 -6.55989e-015
rhumerus -27.4832 14.5738 -79.2801
rradius 88.0931
rwrist -0.917759
rhand -23.317 -2.86936
rfingers 7.12502
rthumb 3.13695 -32.826
lclavicle -4.33677e-015 -6.55989e-015
lhumerus -97.4002 -14.2455 128.626
lradius 77.4082
lwrist 65.1928
lhand 11.7596 11.3229
lfingers 7.12502
lthumb 36.7933 37.4405
rfemur -17.5678 -12.7128 19.8541
rtibia 21.5178
rfoot -18.0107 22.8454
rtoes -4.88976
lfemur -12.5377 1.48174 -19.0349
ltibia 12.6081
lfoot -9.66003 3.18662
ltoes -21.7992
